<?xml version="1.0" encoding="UTF-8"?>
<svg id="AowVN" xmlns="http://www.w3.org/2000/svg" viewBox="0 0 368.5 59.96">
  <defs>
    <style>
      .cls-1 {
        fill: #fffdfd;
      }
    </style>
  </defs>
  <path class="cls-1" d="M28.48,17.45L49.75,.74h22.91V48.51h-20.18l-21.82-12.88-16.8,13.49L0,39.99l16.26-12.82-8.4-4.97,12.44-9.59,8.18,4.83Zm13.64,8.45l11.67,6.85v-15.84l-11.67,8.99Z"/>
  <path class="cls-1" d="M161.19,37.22l-15.28,11.44h-53.35l-15.28-11.44L117.98,.74h2.62l40.59,36.48Zm-60.12-.54h36.33l-18.22-16.02-18.11,16.02Z"/>
  <path class="cls-1" d="M196.37,22.21l12.98,8.68V.74h18.87V37.42l-16.91,11.24h-1.96l-12.98-8.95-12.87,8.95h-1.96l-16.91-11.24V12.72h-9.27V.74h28.15V30.89l12.87-8.68Z"/>
  <path class="cls-1" d="M307.25,8.14l-36,40.52h-2.84L232.85,8.14,248.34,0l21.6,26.39L291.87,0l15.38,8.14Z"/>
  <path class="cls-1" d="M368.5,59.96h-1.2l-17.67-9.67v-15.79l-18.66-13.57v27.74h-18.87V6.89l-7.31-5.31V.77h22.26l22.58,16.53V.77h18.87V59.96Z"/>
</svg>